HIERARCHY
ROOT hip
{
	OFFSET 0.000000 0.000000 0.000000 
	CHANNELS 6 Xposition Yposition Zposition Xrotation Zrotation Yrotation
	JOINT abdomen
	{
		OFFSET 0.000000 3.402643 0.000000 
		CHANNELS 3 Xrotation Zrotation Yrotation
		JOINT chest
		{
			OFFSET 0.000000 8.438565 -0.680529 
			CHANNELS 3 Xrotation Zrotation Yrotation
			JOINT neck
			{
				OFFSET 0.000000 10.207942 -0.272212 
				CHANNELS 3 Xrotation Zrotation Yrotation
				JOINT head
				{
					OFFSET 0.000000 3.130431 0.000000 
					CHANNELS 3 Xrotation Zrotation Yrotation
					End Site
					{
						OFFSET 0.000000 3.130435 0.000000 
					}
				}
			}
			JOINT lCollar
			{
				OFFSET 3.470700 6.669187 -0.816635 
				CHANNELS 3 Yrotation Zrotation Xrotation
				JOINT lShldr
				{
					OFFSET 3.198488 0.000000 0.000000 
					CHANNELS 3 Zrotation Yrotation Xrotation
					JOINT lForeArm
					{
						OFFSET 10.139888 0.000000 0.000000 
						CHANNELS 3 Yrotation Zrotation Xrotation
						JOINT lHand
						{
							OFFSET 8.370511 0.000000 0.000000 
							CHANNELS 3 Zrotation Yrotation Xrotation
							End Site
							{
								OFFSET 4.083176 0.000000 0.000000 
							}
						}
					}
				}
			}
			JOINT rCollar
			{
				OFFSET -3.470700 6.669187 -0.816635 
				CHANNELS 3 Yrotation Zrotation Xrotation
				JOINT rShldr
				{
					OFFSET -3.198488 0.000000 0.000000 
					CHANNELS 3 Zrotation Yrotation Xrotation
					JOINT rForeArm
					{
						OFFSET -10.139888 0.000000 0.000000 
						CHANNELS 3 Yrotation Zrotation Xrotation
						JOINT rHand
						{
							OFFSET -8.370511 0.000000 0.000000 
							CHANNELS 3 Zrotation Yrotation Xrotation
							End Site
							{
								OFFSET -4.083176 0.000000 0.000000 
							}
						}
					}
				}
			}
		}
	}
	JOINT lThigh
	{
		OFFSET 5.308129 -1.633274 1.361059 
		CHANNELS 3 Xrotation Zrotation Yrotation
		JOINT lShin
		{
			OFFSET -2.041588 -20.007561 0.000000 
			CHANNELS 3 Xrotation Zrotation Yrotation
			JOINT lFoot
			{
				OFFSET 0.000000 -19.190928 -1.224953 
				CHANNELS 3 Xrotation Yrotation Zrotation
				End Site
				{
					OFFSET 0.000000 -2.449906 4.627600 
				}
			}
		}
	}
	JOINT rThigh
	{
		OFFSET -5.308129 -1.633274 1.361059 
		CHANNELS 3 Xrotation Zrotation Yrotation
		JOINT rShin
		{
			OFFSET 2.041588 -20.007561 0.000000 
			CHANNELS 3 Xrotation Zrotation Yrotation
			JOINT rFoot
			{
				OFFSET 0.000000 -19.190928 -1.224953 
				CHANNELS 3 Xrotation Yrotation Zrotation
				End Site
				{
					OFFSET 0.000000 -2.449906 4.627600 
				}
			}
		}
	}
}
MOTION
Frames: 16
Frame Time: 0.016667
-30.599348 45.127300 124.468185 9.742715 5.690719 -14.584847 18.003059 -2.314822 -12.725593 3.509497 0.341011 3.886824 -11.333782 2.840745 4.996670 4.391412 3.665409 -3.405212 1.038662 -2.824574 -0.126778 -88.998825 17.527239 -11.847198 -60.499645 -29.180914 -5.112400 15.743040 17.752672 4.838651 4.656299 -9.722353 -0.068804 78.599770 -23.176453 -2.038869 97.483444 33.042812 -13.964170 -28.250505 14.975802 -8.165461 -29.108892 -2.148644 -5.849605 82.208481 -1.600496 -3.398088 -4.861290 -0.429468 -12.011928 -13.995318 5.357389 3.542476 35.774136 -1.101095 0.921217 34.105679 6.545241 7.414396 
-31.142042 45.491676 126.321228 10.037758 6.027615 -13.258081 18.003059 -2.314822 -12.725593 2.726108 -0.720397 4.531505 -11.333782 2.840745 4.996670 5.022250 4.448489 -4.612991 1.038662 -2.824574 -0.126778 -87.678383 21.014908 -13.463665 -59.203491 -29.899973 -4.985934 15.743040 17.752672 4.838651 4.656299 -9.722353 -0.068804 79.318054 -20.530802 -0.164796 98.475723 32.916870 -12.614142 -28.250505 14.975802 -8.165461 -31.230719 -3.103939 -5.673853 75.058304 -1.845975 -3.896613 -5.006522 -0.675361 -12.313819 -10.271935 4.199312 1.740323 32.932377 -0.854851 -0.430957 34.185650 6.596574 7.364925 
-31.684593 45.855949 128.174149 10.330244 6.355036 -11.929646 18.003059 -2.314822 -12.725593 1.929737 -1.760314 5.197653 -11.333782 2.840745 4.996670 5.640180 5.236824 -5.805169 1.038662 -2.824574 -0.126778 -86.428070 24.534302 -15.035712 -57.898365 -30.613096 -4.844979 15.743040 17.752672 4.838651 4.656299 -9.722353 -0.068804 80.114922 -17.907146 1.720097 99.470673 32.810207 -11.269055 -28.250505 14.975802 -8.165461 -33.370338 -4.061214 -5.476292 67.929298 -2.129369 -4.288130 -5.160693 -0.973533 -12.607529 -6.507861 3.122177 -0.096910 30.079702 -0.636289 -1.793965 34.265259 6.656634 7.278507 
-32.026096 46.073631 129.814194 10.547192 6.582150 -10.773905 18.003059 -2.314822 -12.725593 1.220143 -2.470234 5.209908 -11.333782 2.840745 4.996670 6.002934 5.764658 -6.419024 1.038662 -2.824574 -0.126778 -84.948174 27.591208 -16.775366 -58.580246 -31.937466 -4.848101 15.743040 17.752672 4.838651 4.656299 -9.722353 -0.068804 79.725571 -16.937782 2.963221 101.907570 33.019650 -11.957127 -28.250505 14.975802 -8.165461 -33.439980 -5.193868 -6.162176 60.757614 -2.851478 -4.331897 -5.197169 -0.878612 -12.685522 -3.934972 2.167587 -2.244421 28.256941 -0.577513 -2.126161 34.352470 6.745337 7.286366 
-32.367569 46.291260 131.453934 10.771667 6.807944 -9.627944 18.003059 -2.314822 -12.725593 0.520352 -3.170354 5.232254 -11.333782 2.840745 4.996670 6.356532 6.281003 -7.024703 1.038662 -2.824574 -0.126778 -83.530128 30.681534 -18.483076 -59.264717 -33.257404 -4.872180 15.743040 17.752672 4.838651 4.656299 -9.722353 -0.068804 79.362549 -15.971994 4.188283 104.346672 33.214085 -12.652104 -28.250505 14.975802 -8.165461 -33.513172 -6.327331 -6.855066 53.598106 -3.544810 -4.267004 -5.244316 -0.794414 -12.779120 -1.336787 1.307404 -4.446818 26.432362 -0.557673 -2.439304 34.411076 6.828885 7.286420 
-32.664959 46.442692 132.667786 11.150273 6.710730 -8.643411 18.003059 -2.314822 -12.725593 -0.102819 -3.521739 4.999383 -11.333782 2.840745 4.996670 6.273519 6.718335 -7.600654 1.038662 -2.824574 -0.126778 -82.230331 32.692013 -19.304304 -60.043880 -34.286472 -5.472972 15.743040 17.752672 4.838651 4.656299 -9.722353 -0.068804 78.820427 -15.358322 4.893074 106.683800 33.910896 -13.918639 -28.250505 14.975802 -8.165461 -33.454788 -7.216450 -8.372994 47.353104 -4.697061 -4.035083 -5.221155 -0.786247 -12.583522 -0.064727 0.797650 -6.387108 25.550241 -0.411474 -2.284008 34.351185 6.752070 7.277193 
-32.962532 46.594215 133.882385 11.534940 6.610953 -7.657724 18.003059 -2.314822 -12.725593 -0.714026 -3.873261 4.776484 -11.333782 2.840745 4.996670 6.181563 7.153817 -8.179328 1.038662 -2.824574 -0.126778 -80.941872 34.712345 -20.086246 -60.844761 -35.310879 -6.100894 15.743040 17.752672 4.838651 4.656299 -9.722353 -0.068804 78.282799 -14.732619 5.586758 109.057457 34.569775 -15.230422 -28.250505 14.975802 -8.165461 -33.363350 -8.103317 -9.914927 41.080059 -5.829457 -3.701988 -5.201217 -0.760874 -12.380859 1.181743 0.353299 -8.378721 24.704935 -0.313828 -2.110149 34.274605 6.695302 7.289436 
-33.491047 46.873421 136.116226 12.061418 6.277163 -6.571809 18.003059 -2.314822 -12.725593 -1.601244 -4.128860 4.326979 -11.333782 2.840745 4.996670 6.107971 7.594320 -8.403621 1.038662 -2.824574 -0.126778 -79.831200 37.946842 -21.168983 -62.971359 -36.353001 -7.857165 15.743040 17.752672 4.838651 4.656299 -9.722353 -0.068804 76.492577 -14.139423 6.917322 113.574829 35.174129 -18.071756 -28.250505 14.975802 -8.165461 -33.202564 -8.447268 -12.361183 31.909098 -5.869937 -1.791744 -5.201967 -0.895336 -12.332319 2.711278 -0.028821 -10.350190 25.907087 -1.066001 -2.224662 34.411667 6.824881 7.295549 
-34.019398 47.152298 138.349396 12.575788 5.929916 -5.488201 18.003059 -2.314822 -12.725593 -2.475272 -4.404043 3.868512 -11.333782 2.840745 4.996670 6.029489 8.034002 -8.639333 1.038662 -2.824574 -0.126778 -78.746490 41.196644 -22.218979 -65.154564 -37.344692 -9.681395 15.743040 17.752672 4.838651 4.656299 -9.722353 -0.068804 74.720436 -13.505311 8.225961 118.151810 35.595543 -20.976021 -28.250505 14.975802 -8.165461 -32.989624 -8.794378 -14.824036 22.744785 -5.621230 0.114474 -5.238419 -1.037229 -12.310099 4.238517 -0.370040 -12.322475 27.101236 -1.827970 -2.367837 34.560940 6.990459 7.264366 
-34.348709 47.015064 139.754852 12.635058 5.670593 -5.142255 18.003059 -2.314822 -12.725593 -2.652714 -4.484088 3.447580 -11.333782 2.840745 4.996670 5.763616 8.124015 -8.492952 1.038662 -2.824574 -0.126778 -77.967957 42.423450 -22.300560 -66.114532 -37.881577 -10.210913 15.743040 17.752672 4.838651 4.656299 -9.722353 -0.068804 73.914444 -13.241750 8.758572 120.240768 35.493755 -22.265270 -28.250505 14.975802 -8.165461 -32.545292 -8.690007 -15.694253 19.644669 -4.491465 0.500122 -5.294455 -0.775532 -12.381071 4.704709 -0.214696 -13.428014 28.638336 -2.457695 -2.363718 34.487423 6.884355 7.283374 
-34.678143 46.877518 141.160904 12.692086 5.410861 -4.786701 18.003059 -2.314822 -12.725593 -2.828729 -4.573755 3.016915 -11.333782 2.840745 4.996670 5.489841 8.214242 -8.336923 1.038662 -2.824574 -0.126778 -77.185486 43.656738 -22.360708 -67.090118 -38.402939 -10.753158 15.743040 17.752672 4.838651 4.656299 -9.722353 -0.068804 73.121559 -12.977059 9.283745 122.314781 35.343193 -23.543861 -28.250505 14.975802 -8.165461 -32.083897 -8.580510 -16.575737 16.565287 -3.338484 0.792809 -5.355936 -0.487069 -12.472425 5.153125 -0.048741 -14.532704 30.170803 -3.073184 -2.403180 34.427910 6.806434 7.274094 
-35.164848 46.342781 143.335983 12.852033 5.093993 -4.166052 18.003059 -2.314822 -12.725593 -2.656239 -4.663890 2.399739 -11.333782 2.840745 4.996670 4.423155 8.316763 -8.053906 1.038662 -2.824574 -0.126778 -76.714493 43.403893 -21.232500 -68.438423 -38.451283 -11.442718 15.743040 17.752672 4.838651 4.656299 -9.722353 -0.068804 72.685692 -13.324160 9.096772 124.618454 35.201580 -25.432570 -28.250505 14.975802 -8.165461 -31.969749 -8.650679 -16.559555 15.505308 -3.163801 0.360251 -5.333424 -0.506625 -12.458560 3.257741 0.439283 -16.549059 36.166527 -5.589759 -3.805676 34.419704 6.889923 7.196009 
-35.651314 45.808201 145.510208 13.016224 4.766334 -3.537527 18.003059 -2.314822 -12.725593 -2.471251 -4.753591 1.773636 -11.333782 2.840745 4.996670 3.360246 8.409736 -7.758423 1.038662 -2.824574 -0.126778 -76.255745 43.145473 -20.113323 -69.789948 -38.477654 -12.134055 15.743040 17.752672 4.838651 4.656299 -9.722353 -0.068804 72.247574 -13.680787 8.929685 126.902336 34.984680 -27.307476 -28.250505 14.975802 -8.165461 -31.864281 -8.730289 -16.558941 14.445654 -2.986889 -0.086018 -5.321047 -0.538607 -12.460957 1.336201 0.880308 -18.581043 42.245255 -7.970835 -5.475433 34.401348 6.976604 7.100589 
-35.857090 45.462749 146.569611 13.046638 4.590886 -3.536733 18.003059 -2.314822 -12.725593 -2.215721 -4.753641 1.753362 -11.333782 2.840745 4.996670 2.473414 8.329799 -7.885430 1.038662 -2.824574 -0.126778 -76.100456 42.007153 -18.599930 -70.111710 -37.898067 -12.215416 15.743040 17.752672 4.838651 4.656299 -9.722353 -0.068804 72.518211 -14.558768 8.057985 127.210060 35.342010 -28.258375 -28.250505 14.975802 -8.165461 -31.879280 -8.648996 -15.378415 15.651716 -3.876455 -1.107447 -5.278303 -0.684034 -12.616839 -0.161475 1.047287 -18.729288 46.141369 -9.084572 -7.387252 34.386047 7.012861 7.196487 
-36.063065 45.116985 147.629883 13.086810 4.415440 -3.535213 18.003059 -2.314822 -12.725593 -1.950425 -4.753690 1.733898 -11.333782 2.840745 4.996670 1.585518 8.249672 -8.022111 1.038662 -2.824574 -0.126778 -75.997093 40.863811 -17.119759 -70.423393 -37.327961 -12.295599 15.743040 17.752672 4.838651 4.656299 -9.722353 -0.068804 72.813263 -15.441475 7.160662 127.503159 35.683815 -29.194181 -28.250505 14.975802 -8.165461 -31.912594 -8.573685 -14.186589 16.879427 -4.734923 -2.145337 -5.232907 -0.831733 -12.762601 -1.694259 1.221917 -18.903242 50.091335 -10.070290 -9.369786 34.357853 7.061873 7.276643 
-36.528084 44.392971 149.727356 13.119843 4.249333 -3.622873 18.003059 -2.314822 -12.725593 -1.072306 -4.929802 1.567628 -11.333782 2.840745 4.996670 -0.370618 8.160478 -8.128425 1.038662 -2.824574 -0.126778 -75.934631 35.964439 -12.880717 -69.346367 -35.441772 -11.050386 15.743040 17.752672 4.838651 4.656299 -9.722353 -0.068804 74.628586 -18.030109 4.510225 125.801224 37.774097 -31.462130 -28.250505 14.975802 -8.165461 -29.867771 -8.689487 -10.029446 20.458817 -3.905995 -6.055078 -5.203443 -0.817016 -12.563895 -5.552070 1.153847 -19.097733 57.959087 -9.990295 -10.723372 34.358791 7.039728 7.368776 
